<svg version="1.1" xmlns="http://www.w3.org/2000/svg" xmlns:xlink="http://www.w3.org/1999/xlink" width="418.748046875" height="320"><defs/><g><text fill="#eeeeee" stroke="none" font-family="Arial" font-size="24px" font-style="normal" font-weight="normal" text-decoration="none" x="0" y="0">UNREGISTERED</text><text fill="#eeeeee" stroke="none" font-family="Arial" font-size="24px" font-style="normal" font-weight="normal" text-decoration="none" x="0" y="30">UNREGISTERED</text><text fill="#eeeeee" stroke="none" font-family="Arial" font-size="24px" font-style="normal" font-weight="normal" text-decoration="none" x="0" y="60">UNREGISTERED</text><text fill="#eeeeee" stroke="none" font-family="Arial" font-size="24px" font-style="normal" font-weight="normal" text-decoration="none" x="0" y="90">UNREGISTERED</text><text fill="#eeeeee" stroke="none" font-family="Arial" font-size="24px" font-style="normal" font-weight="normal" text-decoration="none" x="0" y="120">UNREGISTERED</text><text fill="#eeeeee" stroke="none" font-family="Arial" font-size="24px" font-style="normal" font-weight="normal" text-decoration="none" x="0" y="150">UNREGISTERED</text><text fill="#eeeeee" stroke="none" font-family="Arial" font-size="24px" font-style="normal" font-weight="normal" text-decoration="none" x="0" y="180">UNREGISTERED</text><text fill="#eeeeee" stroke="none" font-family="Arial" font-size="24px" font-style="normal" font-weight="normal" text-decoration="none" x="0" y="210">UNREGISTERED</text><text fill="#eeeeee" stroke="none" font-family="Arial" font-size="24px" font-style="normal" font-weight="normal" text-decoration="none" x="0" y="240">UNREGISTERED</text><text fill="#eeeeee" stroke="none" font-family="Arial" font-size="24px" font-style="normal" font-weight="normal" text-decoration="none" x="0" y="270">UNREGISTERED</text><text fill="#eeeeee" stroke="none" font-family="Arial" font-size="24px" font-style="normal" font-weight="normal" text-decoration="none" x="0" y="300">UNREGISTERED</text><text fill="#eeeeee" stroke="none" font-family="Arial" font-size="24px" font-style="normal" font-weight="normal" text-decoration="none" x="200" y="0">UNREGISTERED</text><text fill="#eeeeee" stroke="none" font-family="Arial" font-size="24px" font-style="normal" font-weight="normal" text-decoration="none" x="200" y="30">UNREGISTERED</text><text fill="#eeeeee" stroke="none" font-family="Arial" font-size="24px" font-style="normal" font-weight="normal" text-decoration="none" x="200" y="60">UNREGISTERED</text><text fill="#eeeeee" stroke="none" font-family="Arial" font-size="24px" font-style="normal" font-weight="normal" text-decoration="none" x="200" y="90">UNREGISTERED</text><text fill="#eeeeee" stroke="none" font-family="Arial" font-size="24px" font-style="normal" font-weight="normal" text-decoration="none" x="200" y="120">UNREGISTERED</text><text fill="#eeeeee" stroke="none" font-family="Arial" font-size="24px" font-style="normal" font-weight="normal" text-decoration="none" x="200" y="150">UNREGISTERED</text><text fill="#eeeeee" stroke="none" font-family="Arial" font-size="24px" font-style="normal" font-weight="normal" text-decoration="none" x="200" y="180">UNREGISTERED</text><text fill="#eeeeee" stroke="none" font-family="Arial" font-size="24px" font-style="normal" font-weight="normal" text-decoration="none" x="200" y="210">UNREGISTERED</text><text fill="#eeeeee" stroke="none" font-family="Arial" font-size="24px" font-style="normal" font-weight="normal" text-decoration="none" x="200" y="240">UNREGISTERED</text><text fill="#eeeeee" stroke="none" font-family="Arial" font-size="24px" font-style="normal" font-weight="normal" text-decoration="none" x="200" y="270">UNREGISTERED</text><text fill="#eeeeee" stroke="none" font-family="Arial" font-size="24px" font-style="normal" font-weight="normal" text-decoration="none" x="200" y="300">UNREGISTERED</text><text fill="#eeeeee" stroke="none" font-family="Arial" font-size="24px" font-style="normal" font-weight="normal" text-decoration="none" x="400" y="0">UNREGISTERED</text><text fill="#eeeeee" stroke="none" font-family="Arial" font-size="24px" font-style="normal" font-weight="normal" text-decoration="none" x="400" y="30">UNREGISTERED</text><text fill="#eeeeee" stroke="none" font-family="Arial" font-size="24px" font-style="normal" font-weight="normal" text-decoration="none" x="400" y="60">UNREGISTERED</text><text fill="#eeeeee" stroke="none" font-family="Arial" font-size="24px" font-style="normal" font-weight="normal" text-decoration="none" x="400" y="90">UNREGISTERED</text><text fill="#eeeeee" stroke="none" font-family="Arial" font-size="24px" font-style="normal" font-weight="normal" text-decoration="none" x="400" y="120">UNREGISTERED</text><text fill="#eeeeee" stroke="none" font-family="Arial" font-size="24px" font-style="normal" font-weight="normal" text-decoration="none" x="400" y="150">UNREGISTERED</text><text fill="#eeeeee" stroke="none" font-family="Arial" font-size="24px" font-style="normal" font-weight="normal" text-decoration="none" x="400" y="180">UNREGISTERED</text><text fill="#eeeeee" stroke="none" font-family="Arial" font-size="24px" font-style="normal" font-weight="normal" text-decoration="none" x="400" y="210">UNREGISTERED</text><text fill="#eeeeee" stroke="none" font-family="Arial" font-size="24px" font-style="normal" font-weight="normal" text-decoration="none" x="400" y="240">UNREGISTERED</text><text fill="#eeeeee" stroke="none" font-family="Arial" font-size="24px" font-style="normal" font-weight="normal" text-decoration="none" x="400" y="270">UNREGISTERED</text><text fill="#eeeeee" stroke="none" font-family="Arial" font-size="24px" font-style="normal" font-weight="normal" text-decoration="none" x="400" y="300">UNREGISTERED</text><g transform="translate(-182,-62) scale(1,1)"><rect fill="#C0C0C0" stroke="none" x="327" y="79" width="89.57080078125" height="160" opacity="0.2"/></g><g transform="translate(-182,-62) scale(1,1)"><rect fill="#ffffff" stroke="none" x="320" y="72" width="89.57080078125" height="160"/></g><g transform="translate(-182,-62) scale(1,1)"><path fill="none" stroke="#000000" d="M 320 72 L 409.57080078125 72 L 409.57080078125 232 L 320 232 L 320 72 Z Z" stroke-miterlimit="10"/></g><g transform="translate(-182,-62) scale(1,1)"><path fill="none" stroke="#000000" d="M 320 97 L 409.57080078125 97" stroke-miterlimit="10"/></g><g transform="translate(-182,-62) scale(1,1)"><path fill="none" stroke="#000000" d="M 320 165 L 409.57080078125 165" stroke-miterlimit="10"/></g><g transform="translate(-182,-62) scale(1,1)"><g><path fill="none" stroke="none"/><text fill="#000000" stroke="none" font-family="Arial" font-size="13px" font-style="normal" font-weight="bold" text-decoration="none" x="344.917236328125" y="91.5">Animal</text></g></g><g transform="translate(-182,-62) scale(1,1)"><g><path fill="none" stroke="none"/><text fill="#000000" stroke="none" font-family="Arial" font-size="13px" font-style="normal" font-weight="normal" text-decoration="none" x="325" y="114.5">+energy</text></g></g><g transform="translate(-182,-62) scale(1,1)"><g><path fill="none" stroke="none"/><text fill="#000000" stroke="none" font-family="Arial" font-size="13px" font-style="normal" font-weight="normal" text-decoration="none" x="325" y="129.5">+position</text></g></g><g transform="translate(-182,-62) scale(1,1)"><g><path fill="none" stroke="none"/><text fill="#000000" stroke="none" font-family="Arial" font-size="13px" font-style="normal" font-weight="normal" text-decoration="none" x="325" y="144.5">+velocity</text></g></g><g transform="translate(-182,-62) scale(1,1)"><g><path fill="none" stroke="none"/><text fill="#000000" stroke="none" font-family="Arial" font-size="13px" font-style="normal" font-weight="normal" text-decoration="none" x="325" y="159.5">+maxVelocity</text></g></g><g transform="translate(-182,-62) scale(1,1)"><g><path fill="none" stroke="none"/><text fill="#000000" stroke="none" font-family="Arial" font-size="13px" font-style="normal" font-weight="normal" text-decoration="none" x="325" y="182.5">+eat()</text></g></g><g transform="translate(-182,-62) scale(1,1)"><g><path fill="none" stroke="none"/><text fill="#000000" stroke="none" font-family="Arial" font-size="13px" font-style="normal" font-weight="normal" text-decoration="none" x="325" y="197.5">+move()</text></g></g><g transform="translate(-182,-62) scale(1,1)"><g><path fill="none" stroke="none"/><text fill="#000000" stroke="none" font-family="Arial" font-size="13px" font-style="normal" font-weight="normal" text-decoration="none" x="325" y="212.5">+die()</text></g></g><g transform="translate(-182,-62) scale(1,1)"><g><path fill="none" stroke="none"/><text fill="#000000" stroke="none" font-family="Arial" font-size="13px" font-style="normal" font-weight="normal" text-decoration="none" x="325" y="227.5">+reproduce()</text></g></g><g transform="translate(-182,-62) scale(1,1)"><rect fill="#C0C0C0" stroke="none" x="519" y="79" width="78.748046875" height="72" opacity="0.2"/></g><g transform="translate(-182,-62) scale(1,1)"><rect fill="#ffffff" stroke="none" x="512" y="72" width="78.748046875" height="72"/></g><g transform="translate(-182,-62) scale(1,1)"><path fill="none" stroke="#000000" d="M 512 72 L 590.748046875 72 L 590.748046875 144 L 512 144 L 512 72 Z Z" stroke-miterlimit="10"/></g><g transform="translate(-182,-62) scale(1,1)"><path fill="none" stroke="#000000" d="M 512 97 L 590.748046875 97" stroke-miterlimit="10"/></g><g transform="translate(-182,-62) scale(1,1)"><path fill="none" stroke="#000000" d="M 512 135 L 590.748046875 135" stroke-miterlimit="10"/></g><g transform="translate(-182,-62) scale(1,1)"><g><path fill="none" stroke="none"/><text fill="#000000" stroke="none" font-family="Arial" font-size="13px" font-style="normal" font-weight="bold" text-decoration="none" x="538.250244140625" y="91.5">Tree</text></g></g><g transform="translate(-182,-62) scale(1,1)"><g><path fill="none" stroke="none"/><text fill="#000000" stroke="none" font-family="Arial" font-size="13px" font-style="normal" font-weight="normal" text-decoration="none" x="517" y="114.5">+hidingProb</text></g></g><g transform="translate(-182,-62) scale(1,1)"><g><path fill="none" stroke="none"/><text fill="#000000" stroke="none" font-family="Arial" font-size="13px" font-style="normal" font-weight="normal" text-decoration="none" x="517" y="129.5">+position</text></g></g><g transform="translate(-182,-62) scale(1,1)"><rect fill="#C0C0C0" stroke="none" x="199" y="335" width="50.919921875" height="44" opacity="0.2"/></g><g transform="translate(-182,-62) scale(1,1)"><rect fill="#ffffff" stroke="none" x="192" y="328" width="50.919921875" height="44"/></g><g transform="translate(-182,-62) scale(1,1)"><path fill="none" stroke="#000000" d="M 192 328 L 242.919921875 328 L 242.919921875 372 L 192 372 L 192 328 Z Z" stroke-miterlimit="10"/></g><g transform="translate(-182,-62) scale(1,1)"><path fill="none" stroke="#000000" d="M 192 353 L 242.919921875 353" stroke-miterlimit="10"/></g><g transform="translate(-182,-62) scale(1,1)"><path fill="none" stroke="#000000" d="M 192 363 L 242.919921875 363" stroke-miterlimit="10"/></g><g transform="translate(-182,-62) scale(1,1)"><g><path fill="none" stroke="none"/><text fill="#000000" stroke="none" font-family="Arial" font-size="13px" font-style="normal" font-weight="bold" text-decoration="none" x="204.094970703125" y="347.5">Prey</text></g></g><g transform="translate(-182,-62) scale(1,1)"><rect fill="#C0C0C0" stroke="none" x="487" y="335" width="62.4599609375" height="44" opacity="0.2"/></g><g transform="translate(-182,-62) scale(1,1)"><rect fill="#ffffff" stroke="none" x="480" y="328" width="62.4599609375" height="44"/></g><g transform="translate(-182,-62) scale(1,1)"><path fill="none" stroke="#000000" d="M 480 328 L 542.4599609375 328 L 542.4599609375 372 L 480 372 L 480 328 Z Z" stroke-miterlimit="10"/></g><g transform="translate(-182,-62) scale(1,1)"><path fill="none" stroke="#000000" d="M 480 353 L 542.4599609375 353" stroke-miterlimit="10"/></g><g transform="translate(-182,-62) scale(1,1)"><path fill="none" stroke="#000000" d="M 480 363 L 542.4599609375 363" stroke-miterlimit="10"/></g><g transform="translate(-182,-62) scale(1,1)"><g><path fill="none" stroke="none"/><text fill="#000000" stroke="none" font-family="Arial" font-size="13px" font-style="normal" font-weight="bold" text-decoration="none" x="486.299560546875" y="347.5">Predator</text></g></g><g transform="translate(-182,-62) scale(1,1)"><path fill="none" stroke="#000000" d="M 234 327 L 319 213" stroke-miterlimit="10"/></g><g transform="translate(-182,-62) scale(1,1)"><path fill="#FFFFFF" stroke="none" d="M 313.5999884708207 234.32697530088902 L 319 213 L 300.1011663717751 224.26206408668838"/></g><g transform="translate(-182,-62) scale(1,1)"><path fill="none" stroke="#000000" d="M 313.5999884708207 234.32697530088902 L 319 213 L 300.1011663717751 224.26206408668838 L 313.5999884708207 234.32697530088902" stroke-miterlimit="10"/></g><g transform="translate(-182,-62) scale(1,1)"><path fill="none" stroke="#000000" d="M 494 327 L 411 215" stroke-miterlimit="10"/></g><g transform="translate(-182,-62) scale(1,1)"><path fill="#FFFFFF" stroke="none" d="M 429.8658012671091 226.31731163085763 L 411 215 L 416.33758820950976 236.34268380747142"/></g><g transform="translate(-182,-62) scale(1,1)"><path fill="none" stroke="#000000" d="M 429.8658012671091 226.31731163085763 L 411 215 L 416.33758820950976 236.34268380747142 L 429.8658012671091 226.31731163085763" stroke-miterlimit="10"/></g></g></svg>